<svg id="Layer_1" data-name="Layer 1" xmlns="http://www.w3.org/2000/svg" viewBox="0 0 67 67">
  <defs>
    <style>
      .cls-1 {
        fill: #232323;
      }
    </style>
  </defs>
  <title>Artboard 1</title>
  <path class="cls-1" d="M20.54,34.57a11.37,11.37,0,0,0,.61,1.37c1.41,2.52,4.13,4.08,8.71,4.51a3.84,3.84,0,0,0-1.55,2.48,5.12,5.12,0,0,1-3.76.3c-1.8-.56-2.49-4.07-5.19-3.57-.58.11-.47.49,0,.81A5.24,5.24,0,0,1,21.59,43a4.42,4.42,0,0,0,4.47,3,13.68,13.68,0,0,0,2.06-.14s0,2.73,0,3.79c0,1.22-1.68,1.57-1.68,2.16,0,.23.56.26,1,.26.88,0,2.72-.72,2.72-2,0-1,0-4.41,0-5a1.9,1.9,0,0,1,.71-1.71s.09,6.94-.17,7.87c-.3,1.09-.85.94-.85,1.43,0,.73,2.21.18,2.95-1.42.57-1.24.32-8,.32-8h.6s0,3.12,0,4.54-.12,3.34.77,4.22c.59.58,2.48,1.59,2.48.67,0-.54-1-1-1-2.44V43.47c.83,0,.71,2.21.71,2.21l.06,4.1a2.09,2.09,0,0,0,1.65,2.12c.65.22,2,.28,2.09-.09s-1.66-.93-1.68-2.08c0-.71,0-1.12,0-4.19s-.42-4.2-1.88-5.11c4.51-.46,7.3-1.55,8.66-4.49a4.56,4.56,0,0,0,.5-1.37,16.32,16.32,0,0,0,.5-4,8.92,8.92,0,0,0-2.45-6.4c.58-3.19-.1-4.64-.41-5.14-1.16-.41-4,1-5.61,2.07-2.56-.74-8-.67-10,.19-3.75-2.64-5.74-2.24-5.74-2.24a7.65,7.65,0,0,0-.34,5.57,7.42,7.42,0,0,0-2.15,5.54A13.42,13.42,0,0,0,20.54,34.57ZM33,64A30,30,0,1,1,63,34,30,30,0,0,1,33,64Z"/>
</svg>
